<svg xmlns="http://www.w3.org/2000/svg" viewBox="0 0 180.49 48.79"><defs><style>.cls-1{fill:#a5ca16;}.cls-2,.cls-6,.cls-7{fill:#0047cc;}.cls-3{fill:#002c72;}.cls-4{fill:#839900;}.cls-5{fill:#d9e021;}.cls-6{font-size:36.33px;font-family:Montserrat-Bold, Montserrat;font-weight:700;}.cls-7{font-size:7.25px;font-family:Montserrat-Regular, Montserrat;}</style></defs><g id="Layer_2" data-name="Layer 2"><g id="Layer_1-2" data-name="Layer 1"><path class="cls-1" d="M21.45,24.2l-5.4-13.74H0l11.1,26,2.63,6.15-1.36,3.23.12-.09,4.28-3.14,9.39-6.89Z"/><polygon class="cls-2" points="51.44 0 46.06 12.71 32.73 44.23 21.27 44.23 30.65 37.35 25.95 25.82 36.78 0 51.44 0"/><polygon class="cls-3" points="34.2 37.28 30.98 44.23 21.27 44.23 30.65 37.35 25.95 25.82 34.2 37.28"/><polygon class="cls-4" points="26.16 35.73 16.77 42.62 12.49 45.76 21.27 33.7 16.05 10.46 21.45 24.2 26.16 35.73"/><polygon class="cls-5" points="9.26 18.03 11.1 36.47 0 10.46 16.05 10.46 9.26 18.03"/><polygon class="cls-3" points="46.06 12.71 47.79 2.56 37.89 4.32 25.95 25.82 36.78 0 51.44 0 46.06 12.71"/><text class="cls-6" transform="translate(58.6 31.24)">vec<tspan class="cls-1" x="65.87" y="0">tyz</tspan></text><text class="cls-7" transform="translate(58.6 40.67)">create stock &amp; share</text></g></g></svg>