<svg width="100%" height="100%" id="svg" viewBox="0 0 1440 690" xmlns="http://www.w3.org/2000/svg" class="transition duration-300 ease-in-out delay-150"><defs><linearGradient id="gradient" x1="0%" y1="53%" x2="100%" y2="47%"><stop offset="5%" stop-color="#0024aa"></stop><stop offset="95%" stop-color="#0080e4"></stop></linearGradient></defs><path d="M 0,700 L 0,175 C 139.82142857142858,146.78571428571428 279.64285714285717,118.57142857142858 387,135 C 494.35714285714283,151.42857142857142 569.2499999999999,212.5 699,222 C 828.7500000000001,231.5 1013.3571428571429,189.42857142857142 1146,173 C 1278.642857142857,156.57142857142858 1359.3214285714284,165.78571428571428 1440,175 L 1440,700 L 0,700 Z" stroke="none" stroke-width="0" fill="url(#gradient)" fill-opacity="0.53" class="transition-all duration-300 ease-in-out delay-150 path-0"></path><defs><linearGradient id="gradient" x1="0%" y1="53%" x2="100%" y2="47%"><stop offset="5%" stop-color="#0024aa"></stop><stop offset="95%" stop-color="#0080e4"></stop></linearGradient></defs><path d="M 0,700 L 0,408 C 79.03571428571428,382.3928571428571 158.07142857142856,356.7857142857143 297,364 C 435.92857142857144,371.2142857142857 634.75,411.24999999999994 777,402 C 919.25,392.75000000000006 1004.9285714285716,334.2142857142857 1106,327 C 1207.0714285714284,319.7857142857143 1323.5357142857142,363.8928571428571 1440,408 L 1440,700 L 0,700 Z" stroke="none" stroke-width="0" fill="url(#gradient)" fill-opacity="1" class="transition-all duration-300 ease-in-out delay-150 path-1"></path></svg>